<mxfile host="app.diagrams.net" agent="Mozilla/5.0 (Windows NT 10.0; Win64; x64) AppleWebKit/537.36 (KHTML, like Gecko) Chrome/134.0.0.0 Safari/537.36" version="26.1.3">
  <diagram name="Page-1" id="c4acf3e9-155e-7222-9cf6-157b1a14988f">
    <mxGraphModel dx="928" dy="472" grid="1" gridSize="10" guides="1" tooltips="1" connect="1" arrows="1" fold="1" page="1" pageScale="1" pageWidth="850" pageHeight="1100" background="none" math="0" shadow="0">
      <root>
        <mxCell id="0" />
        <mxCell id="1" parent="0" />
        <mxCell id="ztt2-pip3jnHmB8SnNkf-26" value="" style="html=1;whiteSpace=wrap;" vertex="1" parent="1">
          <mxGeometry x="140" y="70" width="500" height="790" as="geometry" />
        </mxCell>
        <mxCell id="5d2195bd80daf111-25" style="edgeStyle=orthogonalEdgeStyle;rounded=0;html=1;dashed=1;labelBackgroundColor=none;startFill=0;endArrow=open;endFill=0;endSize=10;fontFamily=Verdana;fontSize=10;exitX=0;exitY=0.5;exitDx=0;exitDy=0;entryX=0.5;entryY=1;entryDx=0;entryDy=0;" parent="1" source="ztt2-pip3jnHmB8SnNkf-12" target="ztt2-pip3jnHmB8SnNkf-10" edge="1">
          <mxGeometry relative="1" as="geometry">
            <Array as="points">
              <mxPoint x="310" y="420" />
            </Array>
            <mxPoint x="210" y="450" as="sourcePoint" />
            <mxPoint x="310" y="361" as="targetPoint" />
          </mxGeometry>
        </mxCell>
        <mxCell id="ztt2-pip3jnHmB8SnNkf-31" value="&amp;lt;&amp;lt; Include&amp;gt;&amp;gt;" style="edgeLabel;html=1;align=center;verticalAlign=middle;resizable=0;points=[];" vertex="1" connectable="0" parent="5d2195bd80daf111-25">
          <mxGeometry x="0.1276" y="-1" relative="1" as="geometry">
            <mxPoint as="offset" />
          </mxGeometry>
        </mxCell>
        <mxCell id="ztt2-pip3jnHmB8SnNkf-1" value="Usuário" style="shape=umlActor;verticalLabelPosition=bottom;verticalAlign=top;html=1;outlineConnect=0;" vertex="1" parent="1">
          <mxGeometry x="50" y="390" width="30" height="60" as="geometry" />
        </mxCell>
        <mxCell id="ztt2-pip3jnHmB8SnNkf-2" value="Bibliotecário" style="shape=umlActor;verticalLabelPosition=bottom;verticalAlign=top;html=1;outlineConnect=0;" vertex="1" parent="1">
          <mxGeometry x="680" y="390" width="30" height="60" as="geometry" />
        </mxCell>
        <mxCell id="ztt2-pip3jnHmB8SnNkf-10" value="Empréstimos" style="ellipse;whiteSpace=wrap;html=1;" vertex="1" parent="1">
          <mxGeometry x="240" y="231" width="140" height="70" as="geometry" />
        </mxCell>
        <mxCell id="ztt2-pip3jnHmB8SnNkf-11" value="Devoluções" style="ellipse;whiteSpace=wrap;html=1;" vertex="1" parent="1">
          <mxGeometry x="250" y="480" width="140" height="70" as="geometry" />
        </mxCell>
        <mxCell id="ztt2-pip3jnHmB8SnNkf-12" value="Cadastrar&lt;div&gt;Usuários&lt;/div&gt;" style="ellipse;whiteSpace=wrap;html=1;" vertex="1" parent="1">
          <mxGeometry x="400" y="385" width="140" height="70" as="geometry" />
        </mxCell>
        <mxCell id="ztt2-pip3jnHmB8SnNkf-13" value="" style="endArrow=none;html=1;edgeStyle=orthogonalEdgeStyle;rounded=0;entryX=0;entryY=0.5;entryDx=0;entryDy=0;" edge="1" parent="1" source="ztt2-pip3jnHmB8SnNkf-1" target="ztt2-pip3jnHmB8SnNkf-10">
          <mxGeometry relative="1" as="geometry">
            <mxPoint x="30" y="271" as="sourcePoint" />
            <mxPoint x="190" y="271" as="targetPoint" />
            <Array as="points">
              <mxPoint x="65" y="266" />
            </Array>
          </mxGeometry>
        </mxCell>
        <mxCell id="ztt2-pip3jnHmB8SnNkf-19" value="" style="endArrow=none;html=1;edgeStyle=orthogonalEdgeStyle;rounded=0;exitX=0;exitY=0.5;exitDx=0;exitDy=0;" edge="1" parent="1" source="ztt2-pip3jnHmB8SnNkf-11" target="ztt2-pip3jnHmB8SnNkf-1">
          <mxGeometry relative="1" as="geometry">
            <mxPoint x="60" y="230" as="sourcePoint" />
            <mxPoint x="220" y="230" as="targetPoint" />
          </mxGeometry>
        </mxCell>
        <mxCell id="ztt2-pip3jnHmB8SnNkf-20" value="" style="endArrow=none;html=1;edgeStyle=orthogonalEdgeStyle;rounded=0;entryX=0.5;entryY=0.5;entryDx=0;entryDy=0;entryPerimeter=0;exitX=1;exitY=0.5;exitDx=0;exitDy=0;" edge="1" parent="1" source="ztt2-pip3jnHmB8SnNkf-10" target="ztt2-pip3jnHmB8SnNkf-2">
          <mxGeometry relative="1" as="geometry">
            <mxPoint x="60" y="151" as="sourcePoint" />
            <mxPoint x="220" y="151" as="targetPoint" />
          </mxGeometry>
        </mxCell>
        <mxCell id="ztt2-pip3jnHmB8SnNkf-21" value="" style="endArrow=none;html=1;edgeStyle=orthogonalEdgeStyle;rounded=0;exitX=1;exitY=0.629;exitDx=0;exitDy=0;exitPerimeter=0;" edge="1" parent="1" source="ztt2-pip3jnHmB8SnNkf-11" target="ztt2-pip3jnHmB8SnNkf-2">
          <mxGeometry relative="1" as="geometry">
            <mxPoint x="60" y="230" as="sourcePoint" />
            <mxPoint x="220" y="230" as="targetPoint" />
          </mxGeometry>
        </mxCell>
        <mxCell id="ztt2-pip3jnHmB8SnNkf-22" value="" style="endArrow=none;html=1;edgeStyle=orthogonalEdgeStyle;rounded=0;exitX=1;exitY=0.5;exitDx=0;exitDy=0;" edge="1" parent="1" source="ztt2-pip3jnHmB8SnNkf-12" target="ztt2-pip3jnHmB8SnNkf-2">
          <mxGeometry relative="1" as="geometry">
            <mxPoint x="60" y="230" as="sourcePoint" />
            <mxPoint x="220" y="230" as="targetPoint" />
          </mxGeometry>
        </mxCell>
        <mxCell id="ztt2-pip3jnHmB8SnNkf-27" value="Estoque" style="ellipse;whiteSpace=wrap;html=1;" vertex="1" parent="1">
          <mxGeometry x="400" y="291" width="140" height="70" as="geometry" />
        </mxCell>
        <mxCell id="ztt2-pip3jnHmB8SnNkf-28" value="" style="endArrow=none;html=1;edgeStyle=orthogonalEdgeStyle;rounded=0;entryX=0.25;entryY=0.1;entryDx=0;entryDy=0;entryPerimeter=0;exitX=1;exitY=0.5;exitDx=0;exitDy=0;" edge="1" parent="1" source="ztt2-pip3jnHmB8SnNkf-27" target="ztt2-pip3jnHmB8SnNkf-2">
          <mxGeometry relative="1" as="geometry">
            <mxPoint x="190" y="455" as="sourcePoint" />
            <mxPoint x="350" y="455" as="targetPoint" />
          </mxGeometry>
        </mxCell>
        <mxCell id="ztt2-pip3jnHmB8SnNkf-33" value="Atualiza Status" style="ellipse;whiteSpace=wrap;html=1;" vertex="1" parent="1">
          <mxGeometry x="300" y="670" width="140" height="70" as="geometry" />
        </mxCell>
        <mxCell id="ztt2-pip3jnHmB8SnNkf-36" style="edgeStyle=orthogonalEdgeStyle;rounded=0;html=1;dashed=1;labelBackgroundColor=none;startFill=0;endArrow=open;endFill=0;endSize=10;fontFamily=Verdana;fontSize=10;exitX=0.5;exitY=1;exitDx=0;exitDy=0;entryX=0.5;entryY=0;entryDx=0;entryDy=0;" edge="1" parent="1" source="ztt2-pip3jnHmB8SnNkf-11" target="ztt2-pip3jnHmB8SnNkf-33">
          <mxGeometry relative="1" as="geometry">
            <Array as="points">
              <mxPoint x="320" y="620" />
              <mxPoint x="370" y="620" />
            </Array>
            <mxPoint x="210" y="540" as="sourcePoint" />
            <mxPoint x="300" y="659" as="targetPoint" />
          </mxGeometry>
        </mxCell>
        <mxCell id="ztt2-pip3jnHmB8SnNkf-37" value="&amp;lt;&amp;lt; exclude &amp;gt;&amp;gt;" style="edgeLabel;html=1;align=center;verticalAlign=middle;resizable=0;points=[];" vertex="1" connectable="0" parent="ztt2-pip3jnHmB8SnNkf-36">
          <mxGeometry x="0.1276" y="-1" relative="1" as="geometry">
            <mxPoint as="offset" />
          </mxGeometry>
        </mxCell>
        <mxCell id="ztt2-pip3jnHmB8SnNkf-40" style="edgeStyle=orthogonalEdgeStyle;rounded=0;html=1;dashed=1;labelBackgroundColor=none;startFill=0;endArrow=open;endFill=0;endSize=10;fontFamily=Verdana;fontSize=10;exitX=0;exitY=1;exitDx=0;exitDy=0;entryX=0;entryY=0.5;entryDx=0;entryDy=0;" edge="1" parent="1" source="ztt2-pip3jnHmB8SnNkf-10" target="ztt2-pip3jnHmB8SnNkf-33">
          <mxGeometry relative="1" as="geometry">
            <Array as="points">
              <mxPoint x="231" y="291" />
              <mxPoint x="231" y="705" />
            </Array>
            <mxPoint x="231" y="560" as="sourcePoint" />
            <mxPoint x="281" y="680" as="targetPoint" />
          </mxGeometry>
        </mxCell>
        <mxCell id="ztt2-pip3jnHmB8SnNkf-41" value="&amp;lt;&amp;lt; exclude &amp;gt;&amp;gt;" style="edgeLabel;html=1;align=center;verticalAlign=middle;resizable=0;points=[];" vertex="1" connectable="0" parent="ztt2-pip3jnHmB8SnNkf-40">
          <mxGeometry x="0.1276" y="-1" relative="1" as="geometry">
            <mxPoint as="offset" />
          </mxGeometry>
        </mxCell>
        <mxCell id="ztt2-pip3jnHmB8SnNkf-45" value="UML - Biblioteca" style="text;html=1;align=center;verticalAlign=middle;resizable=0;points=[];autosize=1;strokeColor=none;fillColor=none;" vertex="1" parent="1">
          <mxGeometry x="330" y="20" width="110" height="30" as="geometry" />
        </mxCell>
        <mxCell id="ztt2-pip3jnHmB8SnNkf-46" value="&lt;div&gt;Faça a criação o diagrama de caso de uso com base no contexto apresentado abaixo:&lt;/div&gt;&lt;div&gt;&lt;br&gt;&lt;/div&gt;&lt;div&gt;Caso de Uso: Sistema de Biblioteca&lt;/div&gt;&lt;div&gt;&lt;br&gt;&lt;/div&gt;&lt;div&gt;Na biblioteca, o usuário pode realizar empréstimos e devoluções de livros. O Bibliotecário é responsável por cadastrar novos usuários no&lt;/div&gt;&lt;div&gt;&amp;nbsp;sistema e gerenciar os empréstimos e devoluções realizados. Além disso, o Bibliotecário pode gerenciar o estoque da biblioteca.&lt;/div&gt;&lt;div&gt;&amp;nbsp;Ao efetuar um empréstimo, o sistema necessariamente atualiza o status do livro, registrando que o exemplar está&lt;/div&gt;&lt;div&gt;&amp;nbsp;emprestado e vinculado ao usuário. Após a devolução, o sistema atualiza o status do livro para disponível.&lt;/div&gt;&lt;div&gt;&lt;br&gt;&lt;/div&gt;&lt;div&gt;Ao final, anexe o diagrama criado na tarefa.&lt;/div&gt;" style="text;html=1;align=center;verticalAlign=middle;resizable=0;points=[];autosize=1;strokeColor=none;fillColor=none;" vertex="1" parent="1">
          <mxGeometry x="50" y="900" width="750" height="160" as="geometry" />
        </mxCell>
      </root>
    </mxGraphModel>
  </diagram>
</mxfile>
